<?xml version="1.0" encoding="utf-8"?>
<!-- created with dmn-js / http://bpmn.io -->
<!DOCTYPE svg PUBLIC "-//W3C//DTD SVG 1.1//EN" "http://www.w3.org/Graphics/SVG/1.1/DTD/svg11.dtd">
<svg xmlns="http://www.w3.org/2000/svg" xmlns:xlink="http://www.w3.org/1999/xlink" width="1020" height="764" viewBox="138 22 1020 764" version="1.1"><defs><marker id="association-start" viewBox="0 0 20 20" refX="1" refY="10" markerWidth="10" markerHeight="10" orient="auto"><path d="M 11 5 L 1 10 L 11 15" style="stroke-width: 1.5px; stroke-linecap: round; stroke-dasharray: 10000, 1; fill: none; stroke: black;"></path></marker><marker id="association-end" viewBox="0 0 20 20" refX="12" refY="10" markerWidth="10" markerHeight="10" orient="auto"><path d="M 1 5 L 11 10 L 1 15" style="stroke-width: 1.5px; stroke-linecap: round; stroke-dasharray: 10000, 1; fill: none; stroke: black;"></path></marker><marker id="information-requirement-end" viewBox="0 0 20 20" refX="11" refY="10" markerWidth="20" markerHeight="20" orient="auto"><path d="M 1 5 L 11 10 L 1 15 Z" style="stroke-width: 1px; stroke-linecap: round; stroke-dasharray: 10000, 1;"></path></marker><marker id="knowledge-requirement-end" viewBox="0 0 20 20" refX="11" refY="10" markerWidth="16" markerHeight="16" orient="auto"><path d="M 1 3 L 11 10 L 1 17" style="stroke-width: 2px; stroke-linecap: round; stroke-dasharray: 10000, 1; fill: none; stroke: black;"></path></marker><marker id="authority-requirement-end" viewBox="0 0 20 20" refX="3" refY="3" markerWidth="18" markerHeight="18" orient="auto"><circle cx="3" cy="3" r="3" style="stroke-width: 1px; stroke-linecap: round; stroke-dasharray: 10000, 1;"></circle></marker></defs><g class="djs-group"><g class="djs-element djs-shape" data-element-id="dd" style="display: block;" transform="translate(361 315)"><g class="djs-visual"><rect x="0" y="0" width="180" height="80" rx="0" ry="0" style="stroke: black; stroke-width: 2px; fill: white;"/><text class="djs-label" style="font-family: Arial, sans-serif; font-size: 12px;"><tspan x="28.4765625" y="43.5">Discount determination</tspan></text></g><rect x="0" y="0" width="180" height="80" class="djs-hit" style="fill: none; stroke-opacity: 0; stroke: white; stroke-width: 15px;"/><rect x="-6" y="-6" width="192" height="92" class="djs-outline" style="fill: none;"/></g></g><g class="djs-group"><g class="djs-element djs-shape" data-element-id="InputData_1qhkjnz" style="display: block;" transform="translate(147 356)"><g class="djs-visual"><rect x="0" y="0" width="125" height="45" rx="22" ry="22" style="stroke: black; stroke-width: 2px; fill: white;"/><text class="djs-label" style="font-family: Arial, sans-serif; font-size: 12px;"><tspan x="17.984375" y="26">membershiptype</tspan></text></g><rect x="0" y="0" width="125" height="45" class="djs-hit" style="fill: none; stroke-opacity: 0; stroke: white; stroke-width: 15px;"/><rect x="-6" y="-6" width="137" height="57" class="djs-outline" style="fill: none;"/></g></g><g class="djs-group"><g class="djs-element djs-shape" data-element-id="InputData_0835z13" style="display: block;" transform="translate(146 298)"><g class="djs-visual"><rect x="0" y="0" width="125" height="45" rx="22" ry="22" style="stroke: black; stroke-width: 2px; fill: white;"/><text class="djs-label" style="font-family: Arial, sans-serif; font-size: 12px;"><tspan x="19.3203125" y="26">privatecustomer</tspan></text></g><rect x="0" y="0" width="125" height="45" class="djs-hit" style="fill: none; stroke-opacity: 0; stroke: white; stroke-width: 15px;"/><rect x="-6" y="-6" width="137" height="57" class="djs-outline" style="fill: none;"/></g></g><g class="djs-group"><g class="djs-element djs-shape" data-element-id="InputData_0cg2877" style="display: block;" transform="translate(154 608)"><g class="djs-visual"><rect x="0" y="0" width="125" height="45" rx="22" ry="22" style="stroke: black; stroke-width: 2px; fill: white;"/><text class="djs-label" style="font-family: Arial, sans-serif; font-size: 12px;"><tspan x="31.6640625" y="26">customerID</tspan></text></g><rect x="0" y="0" width="125" height="45" class="djs-hit" style="fill: none; stroke-opacity: 0; stroke: white; stroke-width: 15px;"/><rect x="-6" y="-6" width="137" height="57" class="djs-outline" style="fill: none;"/></g></g><g class="djs-group"><g class="djs-element djs-shape" data-element-id="InputData_15qxuet" style="display: block;" transform="translate(144 205)"><g class="djs-visual"><rect x="0" y="0" width="125" height="45" rx="22" ry="22" style="stroke: black; stroke-width: 2px; fill: white;"/><text class="djs-label" style="font-family: Arial, sans-serif; font-size: 12px;"><tspan x="27.984375" y="26">productvalue</tspan></text></g><rect x="0" y="0" width="125" height="45" class="djs-hit" style="fill: none; stroke-opacity: 0; stroke: white; stroke-width: 15px;"/><rect x="-6" y="-6" width="137" height="57" class="djs-outline" style="fill: none;"/></g></g><g class="djs-group"><g class="djs-element djs-shape" data-element-id="cidcheck" style="display: block;" transform="translate(363 590)"><g class="djs-visual"><rect x="0" y="0" width="180" height="80" rx="0" ry="0" style="stroke: black; stroke-width: 2px; fill: white;"/><text class="djs-label" style="font-family: Arial, sans-serif; font-size: 12px;"><tspan x="37.15625" y="43.5">Customer ID Check</tspan></text></g><rect x="0" y="0" width="180" height="80" class="djs-hit" style="fill: none; stroke-opacity: 0; stroke: white; stroke-width: 15px;"/><rect x="-6" y="-6" width="192" height="92" class="djs-outline" style="fill: none;"/></g></g><g class="djs-group"><g class="djs-element djs-shape" data-element-id="Decision_0y4r36g" style="display: block;" transform="translate(363 447)"><g class="djs-visual"><rect x="0" y="0" width="180" height="80" rx="0" ry="0" style="stroke: black; stroke-width: 2px; fill: white;"/><text class="djs-label" style="font-family: Arial, sans-serif; font-size: 12px;"><tspan x="31.4765625" y="43.5">Quarter determination</tspan></text></g><rect x="0" y="0" width="180" height="80" class="djs-hit" style="fill: none; stroke-opacity: 0; stroke: white; stroke-width: 15px;"/><rect x="-6" y="-6" width="192" height="92" class="djs-outline" style="fill: none;"/></g></g><g class="djs-group"><g class="djs-element djs-shape" data-element-id="InputData_0wyru4e" style="display: block;" transform="translate(152 469)"><g class="djs-visual"><rect x="0" y="0" width="125" height="45" rx="22" ry="22" style="stroke: black; stroke-width: 2px; fill: white;"/><text class="djs-label" style="font-family: Arial, sans-serif; font-size: 12px;"><tspan x="31.9921875" y="26">currentdate</tspan></text></g><rect x="0" y="0" width="125" height="45" class="djs-hit" style="fill: none; stroke-opacity: 0; stroke: white; stroke-width: 15px;"/><rect x="-6" y="-6" width="137" height="57" class="djs-outline" style="fill: none;"/></g></g><g class="djs-group"><g class="djs-element djs-shape" data-element-id="dqc" style="display: block;" transform="translate(361 187)"><g class="djs-visual"><rect x="0" y="0" width="180" height="80" rx="0" ry="0" style="stroke: black; stroke-width: 2px; fill: white;"/><text class="djs-label" style="font-family: Arial, sans-serif; font-size: 12px;"><tspan x="40.140625" y="43.5">Product evaluation</tspan></text></g><rect x="0" y="0" width="180" height="80" class="djs-hit" style="fill: none; stroke-opacity: 0; stroke: white; stroke-width: 15px;"/><rect x="-6" y="-6" width="192" height="92" class="djs-outline" style="fill: none;"/></g></g><g class="djs-group"><g class="djs-element djs-shape" data-element-id="dcc" style="display: block;" transform="translate(623 187)"><g class="djs-visual"><rect x="0" y="0" width="180" height="80" rx="0" ry="0" style="stroke: black; stroke-width: 2px; fill: white;"/><text class="djs-label" style="font-family: Arial, sans-serif; font-size: 12px;"><tspan x="36.4765625" y="43.5">Discount calculation</tspan></text></g><rect x="0" y="0" width="180" height="80" class="djs-hit" style="fill: none; stroke-opacity: 0; stroke: white; stroke-width: 15px;"/><rect x="-6" y="-6" width="192" height="92" class="djs-outline" style="fill: none;"/></g></g><g class="djs-group"><g class="djs-element djs-shape" data-element-id="KnowledgeSource_0x6jbg2" style="display: block;" transform="translate(403 717)"><g class="djs-visual"><path d="m 0,4.725 l 0,53.598461538461535 c 30.4258,19.093846153846155 49.416399999999996,-4.070769230769231 68.6112,-6.493846153846154 c 12.456199999999997,-2.229230769230769 20.215799999999998,1.550769230769231 31.4468,6.009230769230769 l 0,-52.92z" style="fill: white; stroke-width: 2px; stroke: black;"/><text class="djs-label" style="font-family: Arial, sans-serif; font-size: 12px;"><tspan x="23.4921875" y="28">Customer </tspan><tspan x="25.1484375" y="42">database</tspan></text></g><rect x="0" y="0" width="100" height="63" class="djs-hit" style="fill: none; stroke-opacity: 0; stroke: white; stroke-width: 15px;"/><rect x="-6" y="-6" width="112" height="75" class="djs-outline" style="fill: none;"/></g></g><g class="djs-group"><g class="djs-element djs-shape" data-element-id="rd" style="display: block;" transform="translate(972 29)"><g class="djs-visual"><rect x="0" y="0" width="180" height="80" rx="0" ry="0" style="stroke: black; stroke-width: 2px; fill: white;"/><text class="djs-label" style="font-family: Arial, sans-serif; font-size: 12px;"><tspan x="62.1640625" y="43.5">Final price</tspan></text></g><rect x="0" y="0" width="180" height="80" class="djs-hit" style="fill: none; stroke-opacity: 0; stroke: white; stroke-width: 15px;"/><rect x="-6" y="-6" width="192" height="92" class="djs-outline" style="fill: none;"/></g></g><g class="djs-group"><g class="djs-element djs-shape" data-element-id="BusinessKnowledgeModel_14hbzgk" style="display: block;" transform="translate(377 28)"><g class="djs-visual"><path d="m 0,13.799999999999999 l 14.904000000000002,-13.493333333333332 l 117.936,0 l 0,30.46222222222222 l -14.904000000000002,13.493333333333332 l -117.828,0z" style="fill: white; stroke-width: 2px; stroke: black;"/><text class="djs-label" style="font-family: Arial, sans-serif; font-size: 12px;"><tspan x="15.4765625" y="26.5">Discount conditions</tspan></text></g><rect x="0" y="0" width="135" height="46" class="djs-hit" style="fill: none; stroke-opacity: 0; stroke: white; stroke-width: 15px;"/><rect x="-6" y="-6" width="147" height="58" class="djs-outline" style="fill: none;"/></g></g><g class="djs-group"><g class="djs-element djs-shape" data-element-id="invoiceID" style="display: block;" transform="translate(851 517)"><g class="djs-visual"><rect x="0" y="0" width="180" height="80" rx="0" ry="0" style="stroke: black; stroke-width: 2px; fill: white;"/><text class="djs-label" style="font-family: Arial, sans-serif; font-size: 12px;"><tspan x="56.4921875" y="43.5">Final invoice</tspan></text></g><rect x="0" y="0" width="180" height="80" class="djs-hit" style="fill: none; stroke-opacity: 0; stroke: white; stroke-width: 15px;"/><rect x="-6" y="-6" width="192" height="92" class="djs-outline" style="fill: none;"/></g></g><g class="djs-group"><g class="djs-element djs-shape" data-element-id="Decision_0cgl35k" style="display: block;" transform="translate(884 140)"><g class="djs-visual"><rect x="0" y="0" width="180" height="80" rx="0" ry="0" style="stroke: black; stroke-width: 2px; fill: white;"/><text class="djs-label" style="font-family: Arial, sans-serif; font-size: 12px;"><tspan x="35.8125" y="43.5">Discount conversion</tspan></text></g><rect x="0" y="0" width="180" height="80" class="djs-hit" style="fill: none; stroke-opacity: 0; stroke: white; stroke-width: 15px;"/><rect x="-6" y="-6" width="192" height="92" class="djs-outline" style="fill: none;"/></g></g><g class="djs-group"><g class="djs-element djs-connection" data-element-id="connection_12" style="display: block;"><g class="djs-visual"><polyline points="272,379 361,378 " style="fill: none; stroke: black; stroke-width: 1px; stroke-linecap: round; stroke-linejoin: round; marker-end: url('#information-requirement-end');"/></g><polyline points="272,379 361,378 " class="djs-hit" style="fill: none; stroke-opacity: 0; stroke: white; stroke-width: 15px;"/><rect x="266" y="372" width="101" height="13" class="djs-outline" style="fill: none;"/></g></g><g class="djs-group"><g class="djs-element djs-connection" data-element-id="connection_13" style="display: block;"><g class="djs-visual"><polyline points="271,326 361,326 " style="fill: none; stroke: black; stroke-width: 1px; stroke-linecap: round; stroke-linejoin: round; marker-end: url('#information-requirement-end');"/></g><polyline points="271,326 361,326 " class="djs-hit" style="fill: none; stroke-opacity: 0; stroke: white; stroke-width: 15px;"/><rect x="265" y="320" width="102" height="12" class="djs-outline" style="fill: none;"/></g></g><g class="djs-group"><g class="djs-element djs-connection" data-element-id="connection_14" style="display: block;"><g class="djs-visual"><polyline points="279,631 362,630 " style="fill: none; stroke: black; stroke-width: 1px; stroke-linecap: round; stroke-linejoin: round; marker-end: url('#information-requirement-end');"/></g><polyline points="279,631 362,630 " class="djs-hit" style="fill: none; stroke-opacity: 0; stroke: white; stroke-width: 15px;"/><rect x="273" y="624" width="95" height="13" class="djs-outline" style="fill: none;"/></g></g><g class="djs-group"><g class="djs-element djs-connection" data-element-id="connection_15" style="display: block;"><g class="djs-visual"><polyline points="453,717 453,671 " style="fill: none; stroke: black; stroke-width: 1.5px; stroke-dasharray: 5; stroke-linecap: round; stroke-linejoin: round; marker-end: url('#authority-requirement-end');"/></g><polyline points="453,717 453,671 " class="djs-hit" style="fill: none; stroke-opacity: 0; stroke: white; stroke-width: 15px;"/><rect x="447" y="665" width="12" height="58" class="djs-outline" style="fill: none;"/></g></g><g class="djs-group"><g class="djs-element djs-connection" data-element-id="connection_16" style="display: block;"><g class="djs-visual"><polyline points="277,492 363,491 " style="fill: none; stroke: black; stroke-width: 1px; stroke-linecap: round; stroke-linejoin: round; marker-end: url('#information-requirement-end');"/></g><polyline points="277,492 363,491 " class="djs-hit" style="fill: none; stroke-opacity: 0; stroke: white; stroke-width: 15px;"/><rect x="271" y="485" width="98" height="13" class="djs-outline" style="fill: none;"/></g></g><g class="djs-group"><g class="djs-element djs-connection" data-element-id="connection_17" style="display: block;"><g class="djs-visual"><polyline points="269,227 360,227 " style="fill: none; stroke: black; stroke-width: 1px; stroke-linecap: round; stroke-linejoin: round; marker-end: url('#information-requirement-end');"/></g><polyline points="269,227 360,227 " class="djs-hit" style="fill: none; stroke-opacity: 0; stroke: white; stroke-width: 15px;"/><rect x="263" y="221" width="103" height="12" class="djs-outline" style="fill: none;"/></g></g><g class="djs-group"><g class="djs-element djs-connection" data-element-id="connection_18" style="display: block;"><g class="djs-visual"><polyline points="445,74 447,187 " style="fill: none; stroke: black; stroke-width: 1px; stroke-dasharray: 5; stroke-linecap: round; stroke-linejoin: round; marker-end: url('#knowledge-requirement-end');"/></g><polyline points="445,74 447,187 " class="djs-hit" style="fill: none; stroke-opacity: 0; stroke: white; stroke-width: 15px;"/><rect x="439" y="68" width="14" height="125" class="djs-outline" style="fill: none;"/></g></g><g class="djs-group"><g class="djs-element djs-connection" data-element-id="connection_19" style="display: block;"><g class="djs-visual"><polyline points="541,227 623,226 " style="fill: none; stroke: black; stroke-width: 1px; stroke-linecap: round; stroke-linejoin: round; marker-end: url('#information-requirement-end');"/></g><polyline points="541,227 623,226 " class="djs-hit" style="fill: none; stroke-opacity: 0; stroke: white; stroke-width: 15px;"/><rect x="535" y="220" width="94" height="13" class="djs-outline" style="fill: none;"/></g></g><g class="djs-group"><g class="djs-element djs-connection" data-element-id="connection_20" style="display: block;"><g class="djs-visual"><polyline points="541,355 720,355 720,267 " style="fill: none; stroke: black; stroke-width: 1px; stroke-linecap: round; stroke-linejoin: round; marker-end: url('#information-requirement-end');"/></g><polyline points="541,355 720,355 720,267 " class="djs-hit" style="fill: none; stroke-opacity: 0; stroke: white; stroke-width: 15px;"/><rect x="535" y="261" width="191" height="100" class="djs-outline" style="fill: none;"/></g></g><g class="djs-group"><g class="djs-element djs-connection" data-element-id="connection_21" style="display: block;"><g class="djs-visual"><polyline points="207,205 207,92 972,92 " style="fill: none; stroke: black; stroke-width: 1px; stroke-linecap: round; stroke-linejoin: round; marker-end: url('#information-requirement-end');"/></g><polyline points="207,205 207,92 972,92 " class="djs-hit" style="fill: none; stroke-opacity: 0; stroke: white; stroke-width: 15px;"/><rect x="201" y="86" width="777" height="125" class="djs-outline" style="fill: none;"/></g></g><g class="djs-group"><g class="djs-element djs-connection" data-element-id="connection_22" style="display: block;"><g class="djs-visual"><polyline points="1036,140 1036,109 " style="fill: none; stroke: black; stroke-width: 1px; stroke-linecap: round; stroke-linejoin: round; marker-end: url('#information-requirement-end');"/></g><polyline points="1036,140 1036,109 " class="djs-hit" style="fill: none; stroke-opacity: 0; stroke: white; stroke-width: 15px;"/><rect x="1030" y="103" width="12" height="43" class="djs-outline" style="fill: none;"/></g></g><g class="djs-group"><g class="djs-element djs-connection" data-element-id="connection_23" style="display: block;"><g class="djs-visual"><polyline points="803,245 913,245 913,517 " style="fill: none; stroke: black; stroke-width: 1px; stroke-linecap: round; stroke-linejoin: round; marker-end: url('#information-requirement-end');"/></g><polyline points="803,245 913,245 913,517 " class="djs-hit" style="fill: none; stroke-opacity: 0; stroke: white; stroke-width: 15px;"/><rect x="797" y="239" width="122" height="284" class="djs-outline" style="fill: none;"/></g></g><g class="djs-group"><g class="djs-element djs-connection" data-element-id="connection_24" style="display: block;"><g class="djs-visual"><polyline points="543,630 941,630 941,597 " style="fill: none; stroke: black; stroke-width: 1px; stroke-linecap: round; stroke-linejoin: round; marker-end: url('#information-requirement-end');"/></g><polyline points="543,630 941,630 941,597 " class="djs-hit" style="fill: none; stroke-opacity: 0; stroke: white; stroke-width: 15px;"/><rect x="537" y="591" width="410" height="45" class="djs-outline" style="fill: none;"/></g></g><g class="djs-group"><g class="djs-element djs-connection" data-element-id="connection_25" style="display: block;"><g class="djs-visual"><polyline points="543,487 865,487 865,517 " style="fill: none; stroke: black; stroke-width: 1px; stroke-linecap: round; stroke-linejoin: round; marker-end: url('#information-requirement-end');"/></g><polyline points="543,487 865,487 865,517 " class="djs-hit" style="fill: none; stroke-opacity: 0; stroke: white; stroke-width: 15px;"/><rect x="537" y="481" width="334" height="42" class="djs-outline" style="fill: none;"/></g></g><g class="djs-group"><g class="djs-element djs-connection" data-element-id="connection_26" style="display: block;"><g class="djs-visual"><polyline points="217,608 217,570 851,570 " style="fill: none; stroke: black; stroke-width: 1px; stroke-linecap: round; stroke-linejoin: round; marker-end: url('#information-requirement-end');"/></g><polyline points="217,608 217,570 851,570 " class="djs-hit" style="fill: none; stroke-opacity: 0; stroke: white; stroke-width: 15px;"/><rect x="211" y="564" width="646" height="50" class="djs-outline" style="fill: none;"/></g></g><g class="djs-group"><g class="djs-element djs-connection" data-element-id="connection_27" style="display: block;"><g class="djs-visual"><polyline points="215,514 215,548 851,548 " style="fill: none; stroke: black; stroke-width: 1px; stroke-linecap: round; stroke-linejoin: round; marker-end: url('#information-requirement-end');"/></g><polyline points="215,514 215,548 851,548 " class="djs-hit" style="fill: none; stroke-opacity: 0; stroke: white; stroke-width: 15px;"/><rect x="209" y="508" width="648" height="46" class="djs-outline" style="fill: none;"/></g></g><g class="djs-group"><g class="djs-element djs-connection" data-element-id="connection_28" style="display: block;"><g class="djs-visual"><polyline points="1108,109 1108,557 1031,557 " style="fill: none; stroke: black; stroke-width: 1px; stroke-linecap: round; stroke-linejoin: round; marker-end: url('#information-requirement-end');"/></g><polyline points="1108,109 1108,557 1031,557 " class="djs-hit" style="fill: none; stroke-opacity: 0; stroke: white; stroke-width: 15px;"/><rect x="1025" y="103" width="89" height="460" class="djs-outline" style="fill: none;"/></g></g><g class="djs-group"><g class="djs-element djs-connection" data-element-id="connection_29" style="display: block;"><g class="djs-visual"><polyline points="803,204 884,204 " style="fill: none; stroke: black; stroke-width: 1px; stroke-linecap: round; stroke-linejoin: round; marker-end: url('#information-requirement-end');"/></g><polyline points="803,204 884,204 " class="djs-hit" style="fill: none; stroke-opacity: 0; stroke: white; stroke-width: 15px;"/><rect x="797" y="198" width="93" height="12" class="djs-outline" style="fill: none;"/></g></g></svg>